<?xml version="1.0" encoding="UTF-8" standalone="no"?>
<!-- Created with Inkscape (http://www.inkscape.org/) -->

<svg
   width="800"
   height="800"
   viewBox="0 0 211.66666 211.66667"
   version="1.1"
   id="svg5"
   sodipodi:docname="biolinks-icon-logo-b.svg"
   inkscape:version="1.2.2 (732a01da63, 2022-12-09)"
   xml:space="preserve"
   xmlns:inkscape="http://www.inkscape.org/namespaces/inkscape"
   xmlns:sodipodi="http://sodipodi.sourceforge.net/DTD/sodipodi-0.dtd"
   xmlns="http://www.w3.org/2000/svg"
   xmlns:svg="http://www.w3.org/2000/svg"><sodipodi:namedview
     id="namedview7"
     pagecolor="#505050"
     bordercolor="#eeeeee"
     borderopacity="1"
     inkscape:showpageshadow="0"
     inkscape:pageopacity="0"
     inkscape:pagecheckerboard="0"
     inkscape:deskcolor="#505050"
     inkscape:document-units="mm"
     showgrid="false"
     inkscape:zoom="0.6175"
     inkscape:cx="297.16599"
     inkscape:cy="401.61943"
     inkscape:window-width="1366"
     inkscape:window-height="697"
     inkscape:window-x="-8"
     inkscape:window-y="-8"
     inkscape:window-maximized="1"
     inkscape:current-layer="layer1" /><defs
     id="defs2" /><g
     inkscape:label="Layer 1"
     inkscape:groupmode="layer"
     id="layer1"><rect
       style="fill:#d6d6d6;stroke-width:0.364108;fill-opacity:1"
       id="rect234"
       width="211.66667"
       height="211.66667"
       x="-2.5431316e-06"
       y="-2.5431316e-06"
       ry="40" /><g
       style="fill:#202020;fill-opacity:1"
       id="g374"
       transform="matrix(9.8587954,0,0,9.8587954,22.033572,11.356497)"><path
         d="M 16.417,9.583 A 7.917,7.917 0 1 1 8.5,1.666 7.917,7.917 0 0 1 16.417,9.583 Z m -3.49,-3.99 A 0.396,0.396 0 0 0 12.531,5.197 H 9.088 a 0.396,0.396 0 0 0 0,0.791 h 2.488 L 9.952,7.612 A 1.178,1.178 0 0 0 9.39,7.47 H 5.146 A 1.189,1.189 0 0 0 3.958,8.657 v 4.244 a 1.189,1.189 0 0 0 1.188,1.187 H 9.39 a 1.189,1.189 0 0 0 1.187,-1.187 V 8.657 A 1.18,1.18 0 0 0 10.485,8.198 l 1.65,-1.65 v 2.488 a 0.396,0.396 0 0 0 0.792,0 z M 7.625,11.059 9.785,8.898 V 12.9 A 0.396,0.396 0 0 1 9.39,13.296 H 5.146 A 0.396,0.396 0 0 1 4.75,12.9 V 8.657 A 0.396,0.396 0 0 1 5.146,8.261 H 9.303 L 7.065,10.5 a 0.396,0.396 0 1 0 0.56,0.56 z"
         id="path365"
         style="fill:#202020;fill-opacity:1" /></g></g></svg>
