<?xml version="1.0" encoding="UTF-8" standalone="no"?>
<!-- Uploaded to: SVG Repo, www.svgrepo.com, Generator: SVG Repo Mixer Tools -->

<svg
   fill="#000000"
   width="500"
   height="500"
   viewBox="0 0 320 320"
   version="1.1"
   id="svg4"
   sodipodi:docname="copyright.svg"
   inkscape:version="1.2.2 (732a01da63, 2022-12-09)"
   xmlns:inkscape="http://www.inkscape.org/namespaces/inkscape"
   xmlns:sodipodi="http://sodipodi.sourceforge.net/DTD/sodipodi-0.dtd"
   xmlns="http://www.w3.org/2000/svg"
   xmlns:svg="http://www.w3.org/2000/svg">
  <defs
     id="defs8" />
  <sodipodi:namedview
     id="namedview6"
     pagecolor="#505050"
     bordercolor="#eeeeee"
     borderopacity="1"
     inkscape:showpageshadow="0"
     inkscape:pageopacity="0"
     inkscape:pagecheckerboard="0"
     inkscape:deskcolor="#505050"
     showgrid="false"
     inkscape:current-layer="svg4" />
  <path
     d="M 160,0 C 71.634194,0 0,71.634194 0,160 0,248.36581 71.634194,320 160,320 248.36581,320 320,248.36581 320,160 320,71.634194 248.36581,0 160,0 Z m 75.57032,223.71161 c -1.02709,1.20452 -25.66193,29.50387 -70.87161,29.50387 -54.64,0 -93.215484,-40.8129 -93.215484,-93.91419 0,-52.45355 40.002584,-92.516774 92.749674,-92.516774 43.19807,0 65.78387,24.074194 66.72387,25.099355 a 7.7419355,7.7419355 0 0 1 0.79871,9.434189 l -14.43871,22.35807 c -2.61225,4.04322 -8.24129,4.74258 -11.76387,1.48064 -0.15032,-0.13806 -17.11548,-15.40645 -39.92258,-15.40645 -29.75226,0 -47.68774,21.66129 -47.68774,49.08516 0,25.54968 16.46065,51.4142 47.92065,51.4142 24.9658,0 42.11612,-18.28258 42.28645,-18.46774 3.31097,-3.59033 9.07032,-3.2471 11.94064,0.67935 l 15.83678,21.65936 a 7.7425806,7.7425806 0 0 1 -0.35678,9.59096 z"
     id="path2"
     style="stroke-width:0.645161;fill:#ffd100;fill-opacity:1" />
</svg>
