<?xml version="1.0" encoding="UTF-8" standalone="no"?>
<!-- Uploaded to: SVG Repo, www.svgrepo.com, Generator: SVG Repo Mixer Tools -->

<svg
   width="800px"
   height="800px"
   viewBox="0 0 73 73"
   version="1.1"
   id="svg12"
   sodipodi:docname="github-icon-logo-b.svg"
   inkscape:version="1.2.2 (732a01da63, 2022-12-09)"
   xmlns:inkscape="http://www.inkscape.org/namespaces/inkscape"
   xmlns:sodipodi="http://sodipodi.sourceforge.net/DTD/sodipodi-0.dtd"
   xmlns="http://www.w3.org/2000/svg"
   xmlns:svg="http://www.w3.org/2000/svg"
   xmlns:rdf="http://www.w3.org/1999/02/22-rdf-syntax-ns#"
   xmlns:cc="http://creativecommons.org/ns#"
   xmlns:dc="http://purl.org/dc/elements/1.1/">
  <sodipodi:namedview
     id="namedview14"
     pagecolor="#505050"
     bordercolor="#eeeeee"
     borderopacity="1"
     inkscape:showpageshadow="0"
     inkscape:pageopacity="0"
     inkscape:pagecheckerboard="0"
     inkscape:deskcolor="#505050"
     showgrid="false"
     inkscape:zoom="0.64625"
     inkscape:cx="348.93617"
     inkscape:cy="400.77369"
     inkscape:window-width="1366"
     inkscape:window-height="697"
     inkscape:window-x="-8"
     inkscape:window-y="-8"
     inkscape:window-maximized="1"
     inkscape:current-layer="svg12" />
  <title
     id="title2">team-collaboration/version-control/github</title>
  <desc
     id="desc4">Created with Sketch.</desc>
  <defs
     id="defs6" />
  <rect
     id="mask"
     stroke="#000000"
     stroke-width="2"
     fill="#000000"
     x="1"
     y="1"
     width="71"
     height="71"
     rx="14"
     style="fill-rule:nonzero;fill:#d6d6d6;fill-opacity:1;stroke:#d6d6d6;stroke-opacity:1" />
  <path
     d="M 60.306736,23.42818 C 57.895743,19.297227 54.625385,16.026745 50.4948,13.615998 46.363601,11.205128 41.853564,10 36.96149,10 32.070031,10 27.558518,11.205497 23.42818,13.615998 19.297227,16.026622 16.026991,19.297227 13.615998,23.42818 11.205374,27.55901 10,32.069908 10,36.960752 c 0,5.875013 1.714058,11.157976 5.143034,15.85024 3.428608,4.692633 7.857861,7.939752 13.287391,9.741726 0.632013,0.117303 1.099874,0.0348 1.404077,-0.245428 0.304325,-0.280594 0.456303,-0.632013 0.456303,-1.052781 0,-0.07021 -0.006,-0.701853 -0.01771,-1.895669 -0.01205,-1.193815 -0.01771,-2.235284 -0.01771,-3.123913 l -0.807477,0.139682 c -0.514832,0.09431 -1.164305,0.134272 -1.948419,0.12296 -0.783745,-0.01094 -1.597369,-0.09308 -2.439765,-0.245797 C 24.216966,56.100409 23.433098,55.749359 22.707513,55.19936 21.982297,54.649362 21.467465,53.929433 21.16314,53.04068 L 20.81209,52.232835 C 20.578098,51.69501 20.20971,51.097549 19.706436,50.442665 19.203162,49.787168 18.694232,49.342791 18.1794,49.108799 l -0.245796,-0.175955 c -0.163782,-0.116935 -0.315761,-0.25797 -0.456303,-0.421629 -0.14042,-0.163659 -0.245551,-0.327442 -0.315761,-0.49147 -0.07033,-0.164151 -0.01205,-0.298792 0.175464,-0.404414 0.187513,-0.105623 0.52639,-0.156897 1.018106,-0.156897 l 0.701853,0.104885 c 0.468108,0.09382 1.047125,0.374043 1.73779,0.842397 0.690295,0.467984 1.257754,1.076388 1.702499,1.824967 0.538563,0.959823 1.187422,1.691187 1.948419,2.194461 0.760383,0.503274 1.527036,0.754481 2.299223,0.754481 0.772187,0 1.43912,-0.05853 2.001046,-0.174972 0.56131,-0.117057 1.087947,-0.293013 1.579662,-0.526882 0.21063,-1.56872 0.784114,-2.773847 1.71996,-3.616244 -1.333866,-0.140174 -2.533092,-0.351296 -3.598291,-0.632013 -1.064585,-0.281086 -2.164705,-0.737266 -3.299623,-1.36977 -1.135533,-0.631644 -2.077527,-1.416004 -2.826228,-2.351727 -0.748825,-0.936215 -1.363377,-2.16532 -1.842797,-3.686208 -0.479666,-1.521503 -0.71956,-3.276629 -0.71956,-5.265871 0,-2.832376 0.924657,-5.242631 2.773601,-7.232119 -0.866127,-2.129416 -0.784359,-4.516555 0.245551,-7.161171 0.678737,-0.210876 1.685285,-0.05263 3.019152,0.473763 1.334112,0.526637 2.310904,0.977776 2.931358,1.351819 0.620455,0.37392 1.117581,0.690787 1.492116,0.947773 2.177001,-0.608281 4.423597,-0.912484 6.740403,-0.912484 2.316806,0 4.563894,0.304203 6.741018,0.912484 l 1.33399,-0.842151 c 0.912237,-0.561925 1.989487,-1.07688 3.229167,-1.544988 1.240417,-0.467861 2.188928,-0.596723 2.844549,-0.385847 1.05278,2.644739 1.146599,5.031755 0.280225,7.161171 1.848821,1.989487 2.773847,4.400358 2.773847,7.232119 0,1.989242 -0.240755,3.749901 -0.719683,5.283085 -0.479543,1.53343 -1.099382,2.761306 -1.859765,3.686208 -0.761243,0.92478 -1.709262,1.702992 -2.84418,2.334512 -1.135164,0.632013 -2.235653,1.088194 -3.300238,1.369279 -1.065076,0.281086 -2.264302,0.492331 -3.598169,0.632751 1.216563,1.052781 1.824968,2.714581 1.824968,4.984662 v 7.406722 c 0,0.420768 0.146322,0.772064 0.439212,1.05278 0.292521,0.280225 0.75448,0.362731 1.386493,0.245305 5.430268,-1.801728 9.859521,-5.04897 13.288006,-9.741603 3.428115,-4.692264 5.142788,-9.975226 5.142788,-15.850239 -0.0012,-4.890229 -1.207218,-9.400759 -3.616736,-13.531589 z"
     id="Shape"
     fill="#ffffff"
     style="fill-rule:nonzero;stroke:none;stroke-width:1;fill:#202020;fill-opacity:1" />
  <metadata
     id="metadata1949">
    <rdf:RDF>
      <cc:Work
         rdf:about="">
        <dc:title>team-collaboration/version-control/github</dc:title>
      </cc:Work>
    </rdf:RDF>
  </metadata>
</svg>
