<?xml version="1.0" encoding="UTF-8" standalone="no"?>
<!-- Uploaded to: SVG Repo, www.svgrepo.com, Generator: SVG Repo Mixer Tools -->

<svg
   width="500"
   height="500"
   viewBox="0 0 15 15"
   fill="none"
   version="1.1"
   id="svg6"
   sodipodi:docname="heart.svg"
   inkscape:version="1.2.2 (732a01da63, 2022-12-09)"
   xmlns:inkscape="http://www.inkscape.org/namespaces/inkscape"
   xmlns:sodipodi="http://sodipodi.sourceforge.net/DTD/sodipodi-0.dtd"
   xmlns="http://www.w3.org/2000/svg"
   xmlns:svg="http://www.w3.org/2000/svg">
  <defs
     id="defs10" />
  <sodipodi:namedview
     id="namedview8"
     pagecolor="#505050"
     bordercolor="#eeeeee"
     borderopacity="1"
     inkscape:showpageshadow="0"
     inkscape:pageopacity="0"
     inkscape:pagecheckerboard="0"
     inkscape:deskcolor="#505050"
     showgrid="false"
     inkscape:current-layer="svg6" />
  <path
     fill-rule="evenodd"
     clip-rule="evenodd"
     d="M 2.5209678,0.39125122 C 3.0268428,0.13388052 3.5721527,1.25e-7 4.1250152,1.25e-7 c 0.55287,0 1.0981725,0.133880395 1.6040475,0.391251095 0.5056128,0.2572376 0.9598127,0.63161318 1.3388627,1.09722658 0.231225,0.2840119 0.632925,0.2840119 0.8641504,0 C 8.6984258,0.54719392 9.7551008,8.425e-6 10.875001,8.425e-6 c 1.119899,0 2.176574,0.547185495 2.942924,1.488469375 C 14.582025,2.4269727 15,3.6833554 15,4.9779101 15,6.2725064 14.582025,7.5288892 13.817925,8.4673258 L 9.1692758,14.177036 c -0.893325,1.097285 -2.4452254,1.097285 -3.3385581,0 L 1.1820977,8.4673258 C 0.8031452,8.0019371 0.5060552,7.4537943 0.3045152,6.856199 0.1029827,6.258603 2e-7,5.620571 2e-7,4.9779101 2e-7,4.3352575 0.1029827,3.6972505 0.3045152,3.0996632 0.5060552,2.5020343 0.8031452,1.9539164 1.1820977,1.4884778 1.5611777,1.0228644 2.0153701,0.64848882 2.5209678,0.39125122 Z"
     fill="#323232"
     id="path4"
     style="stroke-width:0.790192;fill:#ffd100;fill-opacity:1" />
</svg>
