<?xml version="1.0" encoding="UTF-8" standalone="no"?>
<!-- Uploaded to: SVG Repo, www.svgrepo.com, Generator: SVG Repo Mixer Tools -->

<svg
   width="800px"
   height="800px"
   viewBox="0 0 32 32"
   fill="none"
   version="1.1"
   id="svg39"
   sodipodi:docname="instagram-icon-logo-b.svg"
   inkscape:version="1.2.2 (732a01da63, 2022-12-09)"
   xmlns:inkscape="http://www.inkscape.org/namespaces/inkscape"
   xmlns:sodipodi="http://sodipodi.sourceforge.net/DTD/sodipodi-0.dtd"
   xmlns="http://www.w3.org/2000/svg"
   xmlns:svg="http://www.w3.org/2000/svg">
  <sodipodi:namedview
     id="namedview41"
     pagecolor="#505050"
     bordercolor="#eeeeee"
     borderopacity="1"
     inkscape:showpageshadow="0"
     inkscape:pageopacity="0"
     inkscape:pagecheckerboard="0"
     inkscape:deskcolor="#505050"
     showgrid="false"
     inkscape:zoom="0.6175"
     inkscape:cx="345.74899"
     inkscape:cy="401.61943"
     inkscape:window-width="1366"
     inkscape:window-height="697"
     inkscape:window-x="-8"
     inkscape:window-y="-8"
     inkscape:window-maximized="1"
     inkscape:current-layer="svg39" />
  <rect
     x="6.0000002e-07"
     y="6.0000002e-07"
     width="31.999998"
     height="31.999998"
     rx="6.8571424"
     fill="url(#paint0_radial_87_7153)"
     id="rect2"
     style="fill:url(#paint0_radial_87_7153);stroke-width:1.14286" />
  <rect
     x="6.0000002e-07"
     y="6.0000002e-07"
     width="31.999998"
     height="31.999998"
     rx="6.8571424"
     fill="url(#paint1_radial_87_7153)"
     id="rect4"
     style="fill:url(#paint1_radial_87_7153);stroke-width:1.14286" />
  <rect
     x="6.0000002e-07"
     y="6.0000002e-07"
     width="31.999998"
     height="31.999998"
     rx="6.8571424"
     fill="url(#paint2_radial_87_7153)"
     id="rect6"
     style="fill:#d6d6d6;stroke-width:1.14286;fill-opacity:1" />
  <path
     d="m 24,9.714286 c 0,0.946743 -0.767543,1.714286 -1.714286,1.714286 -0.946743,0 -1.714286,-0.767543 -1.714286,-1.714286 0,-0.9467772 0.767543,-1.7142857 1.714286,-1.7142857 C 23.232457,8.0000003 24,8.7675088 24,9.714286 Z"
     fill="#ffffff"
     id="path8"
     style="stroke-width:1.14286;fill:#202020;fill-opacity:1" />
  <path
     fill-rule="evenodd"
     clip-rule="evenodd"
     d="m 16,21.714285 c 3.155886,0 5.714285,-2.558399 5.714285,-5.714285 0,-3.155886 -2.558399,-5.714285 -5.714285,-5.714285 -3.155886,0 -5.714285,2.558399 -5.714285,5.714285 0,3.155886 2.558399,5.714285 5.714285,5.714285 z m 0,-2.285714 c 1.8936,0 3.428571,-1.534971 3.428571,-3.428571 0,-1.8936 -1.534971,-3.428571 -3.428571,-3.428571 -1.8936,0 -3.428571,1.534971 -3.428571,3.428571 0,1.8936 1.534971,3.428571 3.428571,3.428571 z"
     fill="#ffffff"
     id="path10"
     style="stroke-width:1.14286;fill:#202020;fill-opacity:1" />
  <path
     fill-rule="evenodd"
     clip-rule="evenodd"
     d="m 4.571429,15.542857 c 0,-3.840343 0,-5.7605711 0.7473828,-7.2273596 C 5.9762289,7.0252346 7.0252346,5.9762289 8.3154974,5.3188118 9.7822859,4.571429 11.702514,4.571429 15.542857,4.571429 h 0.914286 c 3.840343,0 5.760571,0 7.227314,0.7473828 1.290286,0.6574171 2.339314,1.7064228 2.996685,2.9966856 0.747429,1.4667885 0.747429,3.3870166 0.747429,7.2273596 v 0.914286 c 0,3.840343 0,5.760571 -0.747429,7.227314 -0.657371,1.290286 -1.706399,2.339314 -2.996685,2.996685 -1.466743,0.747429 -3.386971,0.747429 -7.227314,0.747429 h -0.914286 c -3.840343,0 -5.7605711,0 -7.2273596,-0.747429 C 7.0252346,26.023771 5.9762289,24.974743 5.3188118,23.684457 4.571429,22.217714 4.571429,20.297486 4.571429,16.457143 Z M 15.542857,6.8571432 h 0.914286 c 1.957943,0 3.2888,0.00178 4.3176,0.085829 1.002171,0.081874 1.514628,0.2302742 1.872114,0.4124228 0.860114,0.4382857 1.559428,1.1376228 1.997714,1.9977485 0.182172,0.3574857 0.330629,0.8699425 0.412457,1.8721135 0.084,1.0288 0.08583,2.359657 0.08583,4.3176 v 0.914286 c 0,1.957943 -0.0018,3.2888 -0.08583,4.3176 -0.08183,1.002171 -0.230285,1.514628 -0.412457,1.872114 -0.438286,0.860114 -1.1376,1.559428 -1.997714,1.997714 -0.357486,0.182172 -0.869943,0.330629 -1.872114,0.412457 -1.0288,0.084 -2.359657,0.08583 -4.3176,0.08583 h -0.914286 c -1.957943,0 -3.2888,-0.0018 -4.3176,-0.08583 C 10.223086,24.9752 9.7106288,24.826743 9.3531431,24.644571 8.4930174,24.206285 7.7936803,23.506971 7.3553946,22.646857 7.173246,22.289371 7.0248461,21.776914 6.9429718,20.774743 c -0.084046,-1.0288 -0.085829,-2.359657 -0.085829,-4.3176 v -0.914286 c 0,-1.957943 0.00178,-3.2888 0.085829,-4.3176 C 7.0248461,10.223086 7.173246,9.7106288 7.3553946,9.3531431 7.7936803,8.4930174 8.4930174,7.7936803 9.3531431,7.3553946 9.7106288,7.173246 10.223086,7.0248461 11.225257,6.9429718 c 1.0288,-0.084046 2.359657,-0.085829 4.3176,-0.085829 z"
     fill="#ffffff"
     id="path12"
     style="stroke-width:1.14286;fill:#202020;fill-opacity:1" />
  <defs
     id="defs37">
    <radialGradient
       id="paint0_radial_87_7153"
       cx="0"
       cy="0"
       r="1"
       gradientUnits="userSpaceOnUse"
       gradientTransform="matrix(16.571446,-23.999985,23.999985,16.571446,11.428572,24)">
      <stop
         stop-color="#B13589"
         id="stop14" />
      <stop
         offset="0.79309"
         stop-color="#C62F94"
         id="stop16" />
      <stop
         offset="1"
         stop-color="#8A3AC8"
         id="stop18" />
    </radialGradient>
    <radialGradient
       id="paint1_radial_87_7153"
       cx="0"
       cy="0"
       r="1"
       gradientUnits="userSpaceOnUse"
       gradientTransform="matrix(10.857121,-23.428521,23.428521,10.857121,10.285715,33.142856)">
      <stop
         stop-color="#E0E8B7"
         id="stop21" />
      <stop
         offset="0.444662"
         stop-color="#FB8A2E"
         id="stop23" />
      <stop
         offset="0.71474"
         stop-color="#E2425C"
         id="stop25" />
      <stop
         offset="1"
         stop-color="#E2425C"
         stop-opacity="0"
         id="stop27" />
    </radialGradient>
    <radialGradient
       id="paint2_radial_87_7153"
       cx="0"
       cy="0"
       r="1"
       gradientUnits="userSpaceOnUse"
       gradientTransform="matrix(44.000029,-6.2857166,1.3444495,9.4111497,-1.7142828,1.1428577)">
      <stop
         offset="0.156701"
         stop-color="#406ADC"
         id="stop30" />
      <stop
         offset="0.467799"
         stop-color="#6A45BE"
         id="stop32" />
      <stop
         offset="1"
         stop-color="#6A45BE"
         stop-opacity="0"
         id="stop34" />
    </radialGradient>
  </defs>
</svg>
