<?xml version="1.0" encoding="UTF-8" standalone="no"?>
<!-- Uploaded to: SVG Repo, www.svgrepo.com, Generator: SVG Repo Mixer Tools -->

<svg
   width="800px"
   height="800px"
   viewBox="0 0 32 32"
   fill="none"
   version="1.1"
   id="svg39"
   sodipodi:docname="instagram-icon-logo.svg"
   inkscape:version="1.2.2 (732a01da63, 2022-12-09)"
   xmlns:inkscape="http://www.inkscape.org/namespaces/inkscape"
   xmlns:sodipodi="http://sodipodi.sourceforge.net/DTD/sodipodi-0.dtd"
   xmlns="http://www.w3.org/2000/svg"
   xmlns:svg="http://www.w3.org/2000/svg">
  <sodipodi:namedview
     id="namedview41"
     pagecolor="#505050"
     bordercolor="#eeeeee"
     borderopacity="1"
     inkscape:showpageshadow="0"
     inkscape:pageopacity="0"
     inkscape:pagecheckerboard="0"
     inkscape:deskcolor="#505050"
     showgrid="false"
     inkscape:zoom="0.6175"
     inkscape:cx="400.80972"
     inkscape:cy="400"
     inkscape:window-width="1366"
     inkscape:window-height="697"
     inkscape:window-x="-8"
     inkscape:window-y="-8"
     inkscape:window-maximized="1"
     inkscape:current-layer="svg39" />
  <g
     id="g353"
     transform="matrix(1.1428571,0,0,1.1428571,-2.2857136,-2.2857136)">
    <rect
       x="2"
       y="2"
       width="28"
       height="28"
       rx="6"
       fill="url(#paint0_radial_87_7153)"
       id="rect2"
       style="fill:url(#paint0_radial_87_7153)" />
    <rect
       x="2"
       y="2"
       width="28"
       height="28"
       rx="6"
       fill="url(#paint1_radial_87_7153)"
       id="rect4"
       style="fill:url(#paint1_radial_87_7153)" />
    <rect
       x="2"
       y="2"
       width="28"
       height="28"
       rx="6"
       fill="url(#paint2_radial_87_7153)"
       id="rect6"
       style="fill:url(#paint2_radial_87_7153)" />
    <path
       d="M 23,10.5 C 23,11.3284 22.3284,12 21.5,12 20.6716,12 20,11.3284 20,10.5 20,9.67157 20.6716,9 21.5,9 22.3284,9 23,9.67157 23,10.5 Z"
       fill="#ffffff"
       id="path8" />
    <path
       fill-rule="evenodd"
       clip-rule="evenodd"
       d="m 16,21 c 2.7614,0 5,-2.2386 5,-5 0,-2.7614 -2.2386,-5 -5,-5 -2.7614,0 -5,2.2386 -5,5 0,2.7614 2.2386,5 5,5 z m 0,-2 c 1.6569,0 3,-1.3431 3,-3 0,-1.6569 -1.3431,-3 -3,-3 -1.6569,0 -3,1.3431 -3,3 0,1.6569 1.3431,3 3,3 z"
       fill="#ffffff"
       id="path10" />
    <path
       fill-rule="evenodd"
       clip-rule="evenodd"
       d="M 6,15.6 C 6,12.2397 6,10.5595 6.65396,9.27606 7.2292,8.14708 8.14708,7.2292 9.27606,6.65396 10.5595,6 12.2397,6 15.6,6 h 0.8 c 3.3603,0 5.0405,0 6.3239,0.65396 1.129,0.57524 2.0469,1.49312 2.6221,2.6221 C 26,10.5595 26,12.2397 26,15.6 v 0.8 c 0,3.3603 0,5.0405 -0.654,6.3239 -0.5752,1.129 -1.4931,2.0469 -2.6221,2.6221 C 21.4405,26 19.7603,26 16.4,26 H 15.6 C 12.2397,26 10.5595,26 9.27606,25.346 8.14708,24.7708 7.2292,23.8529 6.65396,22.7239 6,21.4405 6,19.7603 6,16.4 Z M 15.6,8 h 0.8 c 1.7132,0 2.8777,0.00156 3.7779,0.0751 0.8769,0.07164 1.3253,0.20149 1.6381,0.36087 0.7526,0.3835 1.3645,0.99542 1.748,1.74803 0.1594,0.3128 0.2893,0.7612 0.3609,1.6381 C 23.9984,12.7223 24,13.8868 24,15.6 v 0.8 c 0,1.7132 -0.0016,2.8777 -0.0751,3.7779 -0.0716,0.8769 -0.2015,1.3253 -0.3609,1.6381 -0.3835,0.7526 -0.9954,1.3645 -1.748,1.748 -0.3128,0.1594 -0.7612,0.2893 -1.6381,0.3609 C 19.2777,23.9984 18.1132,24 16.4,24 H 15.6 C 13.8868,24 12.7223,23.9984 11.8221,23.9249 10.9452,23.8533 10.4968,23.7234 10.184,23.564 9.43139,23.1805 8.81947,22.5686 8.43597,21.816 8.27659,21.5032 8.14674,21.0548 8.0751,20.1779 8.00156,19.2777 8,18.1132 8,16.4 V 15.6 C 8,13.8868 8.00156,12.7223 8.0751,11.8221 8.14674,10.9452 8.27659,10.4968 8.43597,10.184 8.81947,9.43139 9.43139,8.81947 10.184,8.43597 10.4968,8.27659 10.9452,8.14674 11.8221,8.0751 12.7223,8.00156 13.8868,8 15.6,8 Z"
       fill="#ffffff"
       id="path12" />
  </g>
  <defs
     id="defs37">
    <radialGradient
       id="paint0_radial_87_7153"
       cx="0"
       cy="0"
       r="1"
       gradientUnits="userSpaceOnUse"
       gradientTransform="matrix(14.500016,-20.999988,20.999988,14.500016,12,23)">
      <stop
         stop-color="#B13589"
         id="stop14" />
      <stop
         offset="0.79309"
         stop-color="#C62F94"
         id="stop16" />
      <stop
         offset="1"
         stop-color="#8A3AC8"
         id="stop18" />
    </radialGradient>
    <radialGradient
       id="paint1_radial_87_7153"
       cx="0"
       cy="0"
       r="1"
       gradientUnits="userSpaceOnUse"
       gradientTransform="matrix(9.4999814,-20.499957,20.499957,9.4999814,11,31)">
      <stop
         stop-color="#E0E8B7"
         id="stop21" />
      <stop
         offset="0.444662"
         stop-color="#FB8A2E"
         id="stop23" />
      <stop
         offset="0.71474"
         stop-color="#E2425C"
         id="stop25" />
      <stop
         offset="1"
         stop-color="#E2425C"
         stop-opacity="0"
         id="stop27" />
    </radialGradient>
    <radialGradient
       id="paint2_radial_87_7153"
       cx="0"
       cy="0"
       r="1"
       gradientUnits="userSpaceOnUse"
       gradientTransform="matrix(38.500027,-5.5000022,1.1763934,8.2347563,0.500002,3)">
      <stop
         offset="0.156701"
         stop-color="#406ADC"
         id="stop30" />
      <stop
         offset="0.467799"
         stop-color="#6A45BE"
         id="stop32" />
      <stop
         offset="1"
         stop-color="#6A45BE"
         stop-opacity="0"
         id="stop34" />
    </radialGradient>
  </defs>
</svg>
