<?xml version="1.0" encoding="UTF-8" standalone="no"?>
<!-- Uploaded to: SVG Repo, www.svgrepo.com, Generator: SVG Repo Mixer Tools -->

<svg
   width="500"
   height="500"
   viewBox="0 0 15 15"
   fill="none"
   version="1.1"
   id="svg1712"
   sodipodi:docname="instagram.svg"
   inkscape:version="1.2.2 (732a01da63, 2022-12-09)"
   xmlns:inkscape="http://www.inkscape.org/namespaces/inkscape"
   xmlns:sodipodi="http://sodipodi.sourceforge.net/DTD/sodipodi-0.dtd"
   xmlns="http://www.w3.org/2000/svg"
   xmlns:svg="http://www.w3.org/2000/svg">
  <defs
     id="defs1716" />
  <sodipodi:namedview
     id="namedview1714"
     pagecolor="#505050"
     bordercolor="#eeeeee"
     borderopacity="1"
     inkscape:showpageshadow="0"
     inkscape:pageopacity="0"
     inkscape:pagecheckerboard="0"
     inkscape:deskcolor="#505050"
     showgrid="false"
     inkscape:current-layer="svg1712" />
  <path
     d="m 11.374999,3.4999991 h 0.0083 M 4.166667,14.166668 h 6.666667 c 1.840916,0 3.333332,-1.492417 3.333332,-3.333334 V 4.1666659 c 0,-1.8409504 -1.492416,-3.3333341 -3.333332,-3.3333341 H 4.166667 c -1.84095,0 -3.3333332,1.4923837 -3.3333332,3.3333341 v 6.6666681 c 0,1.840917 1.4923832,3.333334 3.3333332,3.333334 z M 10.625,7.5000002 c 0,1.725916 -1.3990838,3.1249998 -3.1249998,3.1249998 -1.7258916,0 -3.1249999,-1.3990838 -3.1249999,-3.1249998 0,-1.7258923 1.3991083,-3.125001 3.1249999,-3.125001 1.725916,0 3.1249998,1.3991087 3.1249998,3.125001 z"
     stroke="#000000"
     stroke-width="1.66666"
     stroke-linecap="round"
     stroke-linejoin="round"
     id="path1710"
     style="stroke:#eeeeee;stroke-opacity:1" />
</svg>
