<?xml version="1.0" encoding="UTF-8" standalone="no"?>
<!-- Uploaded to: SVG Repo, www.svgrepo.com, Generator: SVG Repo Mixer Tools -->

<svg
   width="800px"
   height="800px"
   viewBox="0 -60.5 256 256"
   version="1.1"
   preserveAspectRatio="xMidYMid"
   id="svg31"
   sodipodi:docname="php-logo.svg"
   inkscape:version="1.2.2 (732a01da63, 2022-12-09)"
   xmlns:inkscape="http://www.inkscape.org/namespaces/inkscape"
   xmlns:sodipodi="http://sodipodi.sourceforge.net/DTD/sodipodi-0.dtd"
   xmlns="http://www.w3.org/2000/svg"
   xmlns:svg="http://www.w3.org/2000/svg">
  <sodipodi:namedview
     id="namedview33"
     pagecolor="#505050"
     bordercolor="#eeeeee"
     borderopacity="1"
     inkscape:showpageshadow="0"
     inkscape:pageopacity="0"
     inkscape:pagecheckerboard="0"
     inkscape:deskcolor="#505050"
     showgrid="false"
     inkscape:zoom="0.64625"
     inkscape:cx="398.45261"
     inkscape:cy="400.77369"
     inkscape:window-width="1366"
     inkscape:window-height="697"
     inkscape:window-x="-8"
     inkscape:window-y="-8"
     inkscape:window-maximized="1"
     inkscape:current-layer="svg31" />
  <defs
     id="defs9">
    <radialGradient
       id="radialGradient-1"
       cx="0.8366"
       cy="-125.811"
       r="363.0565"
       gradientTransform="matrix(0.463,0,0,0.463,76.4644,81.9182)"
       gradientUnits="userSpaceOnUse">
      <stop
         offset="0"
         style="stop-color:#FFFFFF"
         id="stop2" />
      <stop
         offset="0.5"
         style="stop-color:#4C6B97"
         id="stop4" />
      <stop
         offset="1"
         style="stop-color:#231F20"
         id="stop6" />
    </radialGradient>
  </defs>
  <g
     id="g29"
     transform="matrix(1,0,0,1.9019316,0,-60.500002)">
    <ellipse
       fill="url(#radialGradient-1)"
       cx="128"
       cy="67.300003"
       rx="128"
       ry="67.300003"
       id="ellipse11"
       style="fill:url(#radialGradient-1)" />
    <ellipse
       fill="#6181b6"
       cx="128"
       cy="67.300003"
       rx="123"
       ry="62.299999"
       id="ellipse13" />
    <g
       id="g19">
      <path
         fill="#ffffff"
         d="m 152.9,87.5 c 0,0 6.1,-31.4 6.1,-31.4 1.4,-7.1 0.2,-12.4 -3.4,-15.7 -3.5,-3.2 -9.5,-4.8 -18.3,-4.8 h -10.6 l 3,-15.6 c 0.1,-0.6 0,-1.2 -0.4,-1.7 -0.4,-0.5 -0.9,-0.7 -1.5,-0.7 h -14.6 c -1,0 -1.8,0.7 -2,1.6 l -6.5,33.3 c -0.6,-3.8 -2,-7 -4.4,-9.6 C 96,38 89.3,35.5 80.2,35.5 H 52.1 c -1,0 -1.8,0.7 -2,1.6 L 37,104.7 c -0.1,0.6 0,1.2 0.4,1.7 0.4,0.5 0.9,0.7 1.5,0.7 h 14.7 c 1,0 1.8,-0.7 2,-1.6 l 3.2,-16.3 h 10.9 c 5.7,0 10.6,-0.6 14.3,-1.8 3.9,-1.3 7.4,-3.4 10.5,-6.3 2.5,-2.3 4.6,-4.9 6.2,-7.7 l -2.6,13.5 c -0.1,0.6 0,1.2 0.4,1.7 0.4,0.5 0.9,0.7 1.5,0.7 h 14.6 c 1,0 1.8,-0.7 2,-1.6 l 7.2,-37 h 10 c 4.3,0 5.5,0.8 5.9,1.2 0.3,0.3 0.9,1.5 0.2,5.2 L 134.1,87 c -0.1,0.6 0,1.2 0.4,1.7 0.4,0.5 0.9,0.7 1.5,0.7 h 15 c 0.9,-0.3 1.7,-1 1.9,-1.9 z m -67.6,-26 c -0.9,4.7 -2.6,8.1 -5.1,10 -2.5,1.9 -6.6,2.9 -12,2.9 h -6.5 l 4.7,-24.2 h 8.4 c 6.2,0 8.7,1.3 9.7,2.4 1.3,1.6 1.6,4.7 0.8,8.9 z"
         id="path15" />
      <path
         fill="#ffffff"
         d="M 215.3,42.9 C 211,38 204.3,35.5 195.2,35.5 h -28.3 c -1,0 -1.8,0.7 -2,1.6 l -13.1,67.5 c -0.1,0.6 0,1.2 0.4,1.7 0.4,0.5 0.9,0.7 1.5,0.7 h 14.7 c 1,0 1.8,-0.7 2,-1.6 l 3.2,-16.3 h 10.9 c 5.7,0 10.6,-0.6 14.3,-1.8 3.9,-1.3 7.4,-3.4 10.5,-6.3 2.6,-2.4 4.8,-5.1 6.4,-8 1.6,-2.9 2.8,-6.1 3.5,-9.6 1.7,-8.7 0.4,-15.5 -3.9,-20.5 z M 200,61.5 c -0.9,4.7 -2.6,8.1 -5.1,10 -2.5,1.9 -6.6,2.9 -12,2.9 h -6.5 l 4.7,-24.2 h 8.4 c 6.2,0 8.7,1.3 9.7,2.4 1.4,1.6 1.7,4.7 0.8,8.9 z"
         id="path17" />
    </g>
    <g
       id="g27">
      <path
         fill="#000004"
         d="m 74.8,48.2 c 5.6,0 9.3,1 11.2,3.1 1.9,2.1 2.3,5.6 1.3,10.6 -1,5.2 -3,9 -5.9,11.2 -2.9,2.2 -7.3,3.3 -13.2,3.3 H 59.3 L 64.8,48.2 Z M 39,105 h 14.7 l 3.5,-17.9 h 12.6 c 5.6,0 10.1,-0.6 13.7,-1.8 3.6,-1.2 6.8,-3.1 9.8,-5.9 2.5,-2.3 4.5,-4.8 6,-7.5 1.5,-2.7 2.6,-5.7 3.2,-9 1.6,-8 0.4,-14.2 -3.5,-18.7 C 95.1,39.7 88.9,37.5 80.4,37.5 H 52.1 Z"
         id="path21" />
      <path
         fill="#000004"
         d="m 113.3,19.6 h 14.6 l -3.5,17.9 h 13 c 8.2,0 13.8,1.4 16.9,4.3 3.1,2.9 4,7.5 2.8,13.9 L 151,87.1 H 136.2 L 142,57.2 c 0.7,-3.4 0.4,-5.7 -0.7,-6.9 -1.1,-1.2 -3.6,-1.9 -7.3,-1.9 h -11.7 l -7.5,38.7 h -14.6 z"
         id="path23" />
      <path
         fill="#000004"
         d="m 189.5,48.2 c 5.6,0 9.3,1 11.2,3.1 1.9,2.1 2.3,5.6 1.3,10.6 -1,5.2 -3,9 -5.9,11.2 -2.9,2.2 -7.3,3.3 -13.2,3.3 H 174 l 5.5,-28.2 z M 153.7,105 h 14.7 l 3.5,-17.9 h 12.6 c 5.6,0 10.1,-0.6 13.7,-1.8 3.6,-1.2 6.8,-3.1 9.8,-5.9 2.5,-2.3 4.5,-4.8 6,-7.5 1.5,-2.7 2.6,-5.7 3.2,-9 1.6,-8 0.4,-14.2 -3.5,-18.7 -3.9,-4.5 -10.1,-6.7 -18.6,-6.7 h -28.3 z"
         id="path25" />
    </g>
  </g>
</svg>
