<?xml version="1.0" encoding="UTF-8" standalone="no"?>
<!-- Uploaded to: SVG Repo, www.svgrepo.com, Generator: SVG Repo Mixer Tools -->

<svg
   width="800px"
   height="800px"
   viewBox="0 0 32 32"
   fill="none"
   version="1.1"
   id="svg6"
   sodipodi:docname="react-logo.svg"
   inkscape:version="1.2.2 (732a01da63, 2022-12-09)"
   xmlns:inkscape="http://www.inkscape.org/namespaces/inkscape"
   xmlns:sodipodi="http://sodipodi.sourceforge.net/DTD/sodipodi-0.dtd"
   xmlns="http://www.w3.org/2000/svg"
   xmlns:svg="http://www.w3.org/2000/svg">
  <defs
     id="defs10" />
  <sodipodi:namedview
     id="namedview8"
     pagecolor="#505050"
     bordercolor="#eeeeee"
     borderopacity="1"
     inkscape:showpageshadow="0"
     inkscape:pageopacity="0"
     inkscape:pagecheckerboard="0"
     inkscape:deskcolor="#505050"
     showgrid="false"
     inkscape:zoom="0.64625"
     inkscape:cx="398.45261"
     inkscape:cy="400.77369"
     inkscape:window-width="1366"
     inkscape:window-height="697"
     inkscape:window-x="-8"
     inkscape:window-y="-8"
     inkscape:window-maximized="1"
     inkscape:current-layer="svg6" />
  <path
     d="M18.6789 15.9759C18.6789 14.5415 17.4796 13.3785 16 13.3785C14.5206 13.3785 13.3211 14.5415 13.3211 15.9759C13.3211 17.4105 14.5206 18.5734 16 18.5734C17.4796 18.5734 18.6789 17.4105 18.6789 15.9759Z"
     fill="#53C1DE"
     id="path2" />
  <path
     fill-rule="evenodd"
     clip-rule="evenodd"
     d="m 25.280427,10.035322 c 0.603413,-2.7432871 1.36192,-7.830425 -1.312,-9.5551265 -2.66144,-1.7171815 -6.1248,1.5732554 -7.9536,3.5483323 C 14.19136,2.0731309 10.63072,-1.2032383 7.959072,0.5269402 5.2986773,2.2498817 6.1190827,7.2526749 6.7358933,10.013168 4.2541973,10.801722 0,12.500183 0,15.970337 c 0,3.460307 4.2497707,5.308184 6.7167787,6.096 -0.6190934,2.775753 -1.3984214,7.707076 1.265376,9.426215 2.6816323,1.729846 6.2311783,-1.468554 8.0769383,-3.465231 1.840534,1.986708 5.270614,5.206031 7.932587,3.482092 2.670293,-1.729353 1.974827,-6.748307 1.357973,-9.524799 C 27.74112,21.195075 32,19.387444 32,15.970337 c 0,-3.4368 -4.277013,-5.149046 -6.719573,-5.935015 z M 24.97728,20.513229 c -0.405013,-1.434338 -0.95168,-2.959631 -1.620373,-4.535261 0.638293,-1.538462 1.163733,-3.044062 1.55744,-4.46917 1.790613,0.5808 5.71872,1.908185 5.71872,4.461539 0,2.577354 -3.769494,3.917292 -5.655787,4.542892 z m -1.670613,9.672615 c -1.986134,1.286154 -4.936427,-1.792492 -6.29568,-3.255507 0.90176,-1.103385 1.80288,-2.386093 2.682346,-3.810462 1.547094,-0.153477 3.008534,-0.404554 4.333974,-0.747323 0.434133,1.963938 1.27424,6.521354 -0.72064,7.813292 z M 8.6651947,30.167506 C 6.6788587,28.886152 7.586752,24.48566 8.042208,22.440983 c 1.310688,0.324431 2.761632,0.557784 4.312352,0.698461 0.885227,1.393723 1.81248,2.674831 2.74688,3.7968 -1.154453,1.249354 -4.44064,4.518523 -6.4362453,3.231262 z M 1.3669227,15.970337 c 0,-2.586954 3.9046186,-3.904739 5.7360533,-4.484062 0.4005013,1.457108 0.9257707,2.980677 1.5596693,4.521354 -0.642112,1.563569 -1.1748906,3.111262 -1.579072,4.5856 C 5.3372693,20.033967 1.3669227,18.558891 1.3669227,15.970337 Z M 8.6439467,1.8505094 C 10.6384,0.5589648 13.733013,3.7044047 15.05696,5.1201585 c -0.9296,1.1168123 -1.84832,2.3882704 -2.725973,3.7739934 -1.50496,0.156062 -2.945654,0.406647 -4.270091,0.7424 C 7.564,7.4101029 6.651648,3.1406632 8.6439467,1.8505094 Z M 20.671253,10.556429 c 1.021014,0.144123 1.999254,0.335877 2.91776,0.570462 -0.275733,0.9888 -0.619413,2.022769 -1.024213,3.082707 -0.586773,-1.245538 -1.21664,-2.466092 -1.893547,-3.653169 z m -4.656,-4.3433844 c 0.630507,0.7641477 1.261974,1.6174773 1.8832,2.5432613 -1.260053,-0.06671 -2.522133,-0.06695 -3.782186,-9.84e-4 0.62176,-0.917194 1.258666,-1.7692557 1.898986,-2.5422773 z M 9.446933,14.208491 C 9.048843,13.152245 8.7082453,12.113722 8.4301013,11.110768 9.343125,10.882214 10.3168,10.695383 11.3312,10.553598 c -0.678827,1.184493 -1.307627,2.404554 -1.884267,3.654893 z m 1.913387,7.287753 c -1.047893,-0.13083 -2.036309,-0.308184 -2.949056,-0.530461 0.2825387,-1.020554 0.630635,-2.081477 1.037227,-3.160492 0.584576,1.263384 1.222976,2.495261 1.911829,3.690953 z m 4.6928,4.339446 c -0.647893,-0.782153 -1.294187,-1.647261 -1.925333,-2.577723 1.2672,0.05563 2.536853,0.05575 3.803946,-0.0075 -0.623146,0.947446 -1.252373,1.813784 -1.878613,2.58523 z m 6.524693,-8.085292 c 0.427734,1.090708 0.788267,2.145846 1.074667,3.149169 -0.927893,0.236924 -1.9296,0.427693 -2.985067,0.569354 0.68192,-1.2096 1.321814,-2.449107 1.9104,-3.718523 z m -3.64736,3.903877 c -1.938346,0.154954 -3.888746,0.153231 -5.827733,0.01268 -1.10176,-1.800492 -2.08256,-3.694031 -2.929173,-5.659815 0.84256,-1.961723 1.816213,-3.851569 2.912746,-5.649231 1.940374,-0.164061 3.892694,-0.164554 5.833067,9.85e-4 1.087147,1.797538 2.059307,3.682461 2.921387,5.626461 -0.85184,1.960739 -1.830614,3.8544 -2.910294,5.668923 z m 4.3552,-19.8492303 c 1.994987,1.2873108 1.106987,5.8592742 0.671147,7.8473842 -1.327573,-0.342769 -2.76928,-0.597784 -4.278613,-0.756307 -0.87936,-1.40069 -1.7904,-2.6743634 -2.70496,-3.7767511 1.340906,-1.4462523 4.336746,-4.589046 6.312426,-3.3143261 z"
     fill="#53c1de"
     id="path4"
     style="stroke-width:1.14579" />
</svg>
