<?xml version="1.0" encoding="UTF-8" standalone="no"?>
<!-- Uploaded to: SVG Repo, www.svgrepo.com, Generator: SVG Repo Mixer Tools -->

<svg
   width="800px"
   height="800px"
   viewBox="0 0 1024 1024"
   version="1.1"
   id="svg16"
   sodipodi:docname="whatsapp-icon-logo-a.svg"
   inkscape:version="1.2.2 (732a01da63, 2022-12-09)"
   xmlns:inkscape="http://www.inkscape.org/namespaces/inkscape"
   xmlns:sodipodi="http://sodipodi.sourceforge.net/DTD/sodipodi-0.dtd"
   xmlns:xlink="http://www.w3.org/1999/xlink"
   xmlns="http://www.w3.org/2000/svg"
   xmlns:svg="http://www.w3.org/2000/svg">
  <sodipodi:namedview
     id="namedview18"
     pagecolor="#505050"
     bordercolor="#eeeeee"
     borderopacity="1"
     inkscape:showpageshadow="0"
     inkscape:pageopacity="0"
     inkscape:pagecheckerboard="0"
     inkscape:deskcolor="#505050"
     showgrid="false"
     inkscape:zoom="0.6175"
     inkscape:cx="399.19028"
     inkscape:cy="400"
     inkscape:window-width="1366"
     inkscape:window-height="697"
     inkscape:window-x="-8"
     inkscape:window-y="-8"
     inkscape:window-maximized="1"
     inkscape:current-layer="svg16" />
  <defs
     id="defs3">
    <path
       id="a"
       d="M1023.941 765.153c0 5.606-.171 17.766-.508 27.159-.824 22.982-2.646 52.639-5.401 66.151-4.141 20.306-10.392 39.472-18.542 55.425-9.643 18.871-21.943 35.775-36.559 50.364-14.584 14.56-31.472 26.812-50.315 36.416-16.036 8.172-35.322 14.426-55.744 18.549-13.378 2.701-42.812 4.488-65.648 5.3-9.402.336-21.564.505-27.15.505l-504.226-.081c-5.607 0-17.765-.172-27.158-.509-22.983-.824-52.639-2.646-66.152-5.4-20.306-4.142-39.473-10.392-55.425-18.542-18.872-9.644-35.775-21.944-50.364-36.56-14.56-14.584-26.812-31.471-36.415-50.314-8.174-16.037-14.428-35.323-18.551-55.744-2.7-13.378-4.487-42.812-5.3-65.649-.334-9.401-.503-21.563-.503-27.148l.08-504.228c0-5.607.171-17.766.508-27.159.825-22.983 2.646-52.639 5.401-66.151 4.141-20.306 10.391-39.473 18.542-55.426C34.154 93.24 46.455 76.336 61.07 61.747c14.584-14.559 31.472-26.812 50.315-36.416 16.037-8.172 35.324-14.426 55.745-18.549 13.377-2.701 42.812-4.488 65.648-5.3 9.402-.335 21.565-.504 27.149-.504l504.227.081c5.608 0 17.766.171 27.159.508 22.983.825 52.638 2.646 66.152 5.401 20.305 4.141 39.472 10.391 55.425 18.542 18.871 9.643 35.774 21.944 50.363 36.559 14.559 14.584 26.812 31.471 36.415 50.315 8.174 16.037 14.428 35.323 18.551 55.744 2.7 13.378 4.486 42.812 5.3 65.649.335 9.402.504 21.564.504 27.15l-.082 504.226z" />
  </defs>
  <linearGradient
     id="b"
     gradientUnits="userSpaceOnUse"
     x1="512.001"
     y1=".978"
     x2="512.001"
     y2="1025.023">
    <stop
       offset="0"
       stop-color="#61fd7d"
       id="stop5" />
    <stop
       offset="1"
       stop-color="#2bb826"
       id="stop7" />
  </linearGradient>
  <use
     xlink:href="#a"
     overflow="visible"
     fill="url(#b)"
     id="use10"
     style="fill:#d6d6d6;fill-opacity:1"
     transform="matrix(0.99995801,0,0,0.99995703,0.01999894,-0.97795639)" />
  <path
     fill="#ffffff"
     d="M 783.28911,242.25759 C 713.96302,172.87357 621.76689,134.64322 523.53702,134.60422 c -202.39351,0 -367.11759,164.66092 -367.19859,367.05622 -0.026,64.69622 16.8823,127.84851 49.01495,183.51412 l -52.09382,190.22082 194.65683,-51.0448 c 53.63375,29.24274 114.01721,44.65408 175.47463,44.68008 h 0.151 c 202.3735,0 367.11258,-164.68093 367.19458,-367.07823 0.039,-98.08278 -38.1194,-190.31082 -107.44749,-259.69484 z M 523.54202,807.03432 h -0.125 c -54.7647,-0.021 -108.47844,-14.72837 -155.33748,-42.52717 l -11.14553,-6.61172 -115.51215,30.2917 30.83271,-112.58716 -7.2587,-11.5435 c -30.55071,-48.57692 -46.68604,-104.7245 -46.66204,-162.37203 0.066,-168.22177 136.97925,-305.08289 305.32618,-305.08289 81.51758,0.031 158.14736,31.80964 215.76994,89.47816 57.62258,57.66852 89.33825,134.32623 89.30825,215.84972 -0.066,168.23577 -136.97825,305.10489 -305.19618,305.10489 z M 690.94999,578.52914 c -9.17662,-4.5908 -54.28372,-26.78085 -62.69437,-29.84172 -8.40965,-3.06186 -14.52539,-4.5918 -20.64413,4.59181 -6.11475,9.1816 -23.69801,29.84171 -29.05178,35.96245 -5.35178,6.12174 -10.70356,6.8877 -19.87817,2.2959 -9.17561,-4.5908 -38.73837,-14.27638 -73.7829,-45.52404 -27.27386,-24.31796 -45.68908,-54.35667 -51.04086,-63.54027 -5.35177,-9.18261 -0.56897,-14.14539 4.02383,-18.7192 4.12683,-4.10882 9.17462,-10.71254 13.76242,-16.06831 4.58681,-5.35477 6.11675,-9.1826 9.17462,-15.30334 3.05887,-6.12174 1.52893,-11.47851 -0.76497,-16.06931 -2.2929,-4.5908 -20.64313,-49.73686 -28.28881,-68.10107 -7.44669,-17.88523 -15.01237,-15.46534 -20.64413,-15.74633 -5.34578,-0.26598 -11.46852,-0.32198 -17.58427,-0.32198 -6.11574,0 -16.05632,2.2949 -24.46597,11.47751 -8.40965,9.1826 -32.11165,31.37265 -32.11165,76.51771 0,45.14506 32.87562,88.76018 37.46343,94.88092 4.5878,6.12174 64.69628,98.76676 156.73442,138.49605 21.89108,9.44959 38.98036,15.09335 52.3058,19.32117 21.97908,6.9787 41.98024,5.99474 57.79057,3.63384 17.62726,-2.63288 54.28172,-22.18804 61.9294,-43.61312 7.64568,-21.42608 7.64568,-39.78929 5.35178,-43.61513 -2.29391,-3.82583 -8.40965,-6.12174 -17.58426,-10.71354 z"
     id="path12"
     style="stroke-width:0.999958;fill:#202020;fill-opacity:1" />
</svg>
