<?xml version="1.0" encoding="UTF-8" standalone="no"?>
<!-- Uploaded to: SVG Repo, www.svgrepo.com, Generator: SVG Repo Mixer Tools -->

<svg
   fill="#000000"
   width="800px"
   height="800px"
   viewBox="0 0 16 16"
   version="1.1"
   id="svg6"
   sodipodi:docname="whatsapp.svg"
   inkscape:version="1.2.2 (732a01da63, 2022-12-09)"
   xmlns:inkscape="http://www.inkscape.org/namespaces/inkscape"
   xmlns:sodipodi="http://sodipodi.sourceforge.net/DTD/sodipodi-0.dtd"
   xmlns="http://www.w3.org/2000/svg"
   xmlns:svg="http://www.w3.org/2000/svg">
  <defs
     id="defs10" />
  <sodipodi:namedview
     id="namedview8"
     pagecolor="#505050"
     bordercolor="#eeeeee"
     borderopacity="1"
     inkscape:showpageshadow="0"
     inkscape:pageopacity="0"
     inkscape:pagecheckerboard="0"
     inkscape:deskcolor="#505050"
     showgrid="false"
     inkscape:current-layer="svg6" />
  <g
     id="g68"
     transform="matrix(1.0739351,0,0,1.0666485,-0.63362201,-0.53305208)"
     style="fill:#ffd100;fill-opacity:1">
    <path
       d="M 11.42,9.49 C 11.23,9.4 10.32,8.95 10.15,8.88 9.98,8.81 9.86,8.79 9.73,8.98 9.6,9.17 9.25,9.58 9.14,9.71 9.03,9.84 8.93,9.85 8.74,9.71 A 5.13,5.13 0 0 1 7.25,8.79 5.25,5.25 0 0 1 6.25,7.5 C 6.14,7.32 6.25,7.22 6.33,7.12 6.41,7.02 6.51,6.91 6.61,6.8 a 1.39,1.39 0 0 0 0.18,-0.31 0.38,0.38 0 0 0 0,-0.33 C 6.79,6.07 6.37,5.16 6.21,4.79 6.05,4.42 5.91,4.47 5.8,4.47 H 5.4 A 0.72,0.72 0 0 0 4.9,4.7 2.1,2.1 0 0 0 4.25,6.25 3.59,3.59 0 0 0 5,8.2 8.32,8.32 0 0 0 8.19,11 c 0.44,0.19 0.78,0.3 1.05,0.39 a 2.53,2.53 0 0 0 1.17,0.07 1.93,1.93 0 0 0 1.26,-0.88 1.67,1.67 0 0 0 0.11,-0.88 C 11.73,9.63 11.61,9.58 11.42,9.49 Z"
       id="path2"
       style="fill:#ffd100;fill-opacity:1" />
    <path
       d="M 13.29,2.68 A 7.36,7.36 0 0 0 8,0.5 7.44,7.44 0 0 0 1.59,11.65 l -1,3.85 3.94,-1 a 7.4,7.4 0 0 0 3.55,0.9 H 8 A 7.44,7.44 0 0 0 13.29,2.68 Z M 8,14.12 A 6.12,6.12 0 0 1 4.85,13.25 L 4.63,13.12 2.29,13.73 2.91,11.45 2.77,11.22 A 6.18,6.18 0 0 1 12.37,3.57 6.12,6.12 0 0 1 14.18,7.94 6.19,6.19 0 0 1 8,14.12 Z"
       id="path4"
       style="fill:#ffd100;fill-opacity:1" />
  </g>
</svg>
