<?xml version="1.0" encoding="UTF-8" standalone="no"?>
<!-- Uploaded to: SVG Repo, www.svgrepo.com, Generator: SVG Repo Mixer Tools -->

<svg
   fill="#000000"
   width="800px"
   height="800px"
   viewBox="-2 -2 24 24"
   preserveAspectRatio="xMinYMin"
   class="jam jam-whatsapp"
   version="1.1"
   id="svg12612"
   sodipodi:docname="whatsapp.svg"
   inkscape:version="1.2.2 (732a01da63, 2022-12-09)"
   xmlns:inkscape="http://www.inkscape.org/namespaces/inkscape"
   xmlns:sodipodi="http://sodipodi.sourceforge.net/DTD/sodipodi-0.dtd"
   xmlns="http://www.w3.org/2000/svg"
   xmlns:svg="http://www.w3.org/2000/svg">
  <defs
     id="defs12616" />
  <sodipodi:namedview
     id="namedview12614"
     pagecolor="#505050"
     bordercolor="#eeeeee"
     borderopacity="1"
     inkscape:showpageshadow="0"
     inkscape:pageopacity="0"
     inkscape:pagecheckerboard="0"
     inkscape:deskcolor="#505050"
     showgrid="false"
     inkscape:current-layer="svg12612" />
  <g
     id="g13100"
     style="fill:#25d366;fill-opacity:1">
    <path
       d="M 9.4138637,-1.9849065 C 3.0227085,-1.6842952 -2.0192028,3.5944394 -1.999945,9.9397424 a 11.792945,11.781558 0 0 0 1.30591396,5.3689176 l -1.27341656,6.133674 a 0.46579605,0.4653463 0 0 0 0.5656954,0.544707 L 4.6572073,20.563346 A 12.013205,12.001606 0 0 0 9.8134617,21.80427 C 16.345439,21.904073 21.790558,16.760012 21.993968,10.284844 22.213025,3.3407235 16.436913,-2.3179838 9.4138637,-1.9861089 Z M 16.643933,16.493069 A 9.3688797,9.3598337 0 0 1 10.000021,19.22262 9.3520292,9.3429994 0 0 1 5.8186884,18.251044 L 4.9749596,17.833795 1.2594237,18.706771 2.0417685,14.941915 1.6253204,14.133871 A 9.1714881,9.1626327 0 0 1 0.60466126,9.9048724 c 0,-2.489062 0.97732924,-4.8302229 2.75144644,-6.5894003 A 9.4483178,9.4391951 0 0 1 10.000021,0.584719 c 2.510725,0 4.869795,0.9691709 6.643912,2.7295507 a 9.2340757,9.2251598 0 0 1 2.75265,6.5893997 c 0,2.4674176 -0.992976,4.8458536 -2.75265,6.5906016 z"
       id="path12608"
       style="stroke-width:1.20303;fill:#25d366;fill-opacity:1" />
    <path
       d="M14.842 12.045l-1.931-.55a.723.723 0 0 0-.713.186l-.472.478a.707.707 0 0 1-.765.16c-.913-.367-2.835-2.063-3.326-2.912a.694.694 0 0 1 .056-.774l.412-.53a.71.71 0 0 0 .089-.726L7.38 5.553a.723.723 0 0 0-1.125-.256c-.539.453-1.179 1.14-1.256 1.903-.137 1.343.443 3.036 2.637 5.07 2.535 2.349 4.566 2.66 5.887 2.341.75-.18 1.35-.903 1.727-1.494a.713.713 0 0 0-.408-1.072z"
       id="path12610"
       style="fill:#25d366;fill-opacity:1" />
  </g>
</svg>
